<svg width="115" height="85" viewBox="0 0 115 85" fill="none" xmlns="http://www.w3.org/2000/svg">
<path d="M36.1141 64.8791C27.5144 86.5115 61.5223 84.0507 72.8268 63.1211M35.6887 63.8462C-2.08619 104.069 -5.4921 44.4964 28.2727 48.7746M27.4926 48.0062C19.2566 44.1365 23.2978 23.1643 39.2233 38.3719M41.0369 38.7171C40.4901 25.6823 58.392 -3.9352 62.2311 22.6559M62.2311 22.6559C62.2372 22.6985 62.2434 22.7413 62.2494 22.7843M62.2311 22.6559C62.2247 22.6684 62.2183 22.6809 62.2119 22.6934M62.2311 22.6559C71.5964 4.36399 89.5628 -1.77906 88.8952 14.178M88.9326 14.2688C107.592 2.40013 119.416 22.3069 95.9841 34.3189M73.9849 63.8546C78.1798 88.6968 114.496 58.1259 97.5676 36.0853" stroke="#F5EBE0" stroke-width="7" stroke-linecap="round"/>
</svg>
