<svg width="102" height="82" viewBox="0 0 102 82" fill="none" xmlns="http://www.w3.org/2000/svg">
<path d="M73.7546 69.5092C87.7546 83.5092 105.755 55.0092 79.7546 52.5092C114.754 40.0095 87.2546 28.5091 72.7548 32.5089M49.7546 55.5092C56.2546 85.5092 74.7546 77.0092 72.7546 69.5092M18.7546 42.5086C-21.7454 62.0092 39.2546 64.5089 47.7546 54.5086M18.7546 41.5095C-0.245363 41.5095 2.75464 13.0092 26.7546 23.5095M27.7547 23.5095C24.2546 17.5092 30.2547 9.50926 35.7547 20.5095M36.7545 20.5096C31.2546 -1.49063 59.7547 1.5092 50.7545 19.5096M52.7546 18.5093C58.7546 11.5093 88.7546 -1.49078 70.7546 31.5093" stroke="#D5BDAF" stroke-width="7" stroke-linecap="round"/>
</svg>
