<svg width="136" height="61" viewBox="0 0 136 61" fill="none" xmlns="http://www.w3.org/2000/svg">
<path d="M58 53.9131C67 55.9131 70.5 55.9131 78 53.9131M65.8606 35.6288C59.8088 42.5841 58.1389 45.6601 56.3183 53.2056M111 14.9131L119 25.9131M66 38.9131L74 49.9131M120 6C126.5 7.99981 133.5 15.9997 130 21M76 54.9131C91.5 47.4131 117 31.4131 129 21.9131M63.916 37.5383C83.416 24.0383 96.416 16.0383 118.916 6.53827M48 49.9131H43C43 49.9131 41.5 39.9131 28 44.9132M5 31.9129C16 26.4132 25 33.4131 27 42.9129" stroke="#F5EBE0" stroke-width="7" stroke-linecap="round"/>
</svg>
