<svg width="79" height="81" viewBox="0 0 79 81" fill="none" xmlns="http://www.w3.org/2000/svg">
<path d="M12.7866 6.88221C11.6169 5.34323 9.42119 5.04381 7.88221 6.21343C6.34323 7.38306 6.04381 9.57881 7.21343 11.1178L12.7866 6.88221ZM7.89287 60.3888C7.00308 62.1049 7.67287 64.2173 9.38889 65.1071C11.1049 65.9969 13.2174 65.3271 14.1071 63.6111L7.89287 60.3888ZM52.075 72.9221C53.1366 74.5375 55.3067 74.9865 56.9221 73.925C58.5375 72.8634 58.9865 70.6933 57.925 69.0779L52.075 72.9221ZM75.0182 42.5003C76.9512 42.4903 78.51 40.9152 78.5 38.9822C78.49 37.0492 76.9149 35.4904 74.982 35.5004L75.0182 42.5003ZM58 38.0002L57.4469 41.4562L58 38.0002ZM3.87508 31.5022C1.94331 31.5712 0.433238 33.1932 0.50223 35.1249C0.571222 37.0567 2.19316 38.5668 4.12492 38.4978L3.87508 31.5022ZM31.1346 78.4614C31.6657 80.32 33.6029 81.3963 35.4615 80.8652C37.3201 80.3342 38.3963 78.397 37.8653 76.5384L31.1346 78.4614ZM32.5 56.4998L29 56.4998L32.5 56.4998ZM31.4922 3.76718C31.3637 1.83847 29.6959 0.379171 27.7672 0.507752C25.8385 0.636333 24.3792 2.3041 24.5078 4.23282L31.4922 3.76718ZM52.6489 8.28767C53.9123 6.82473 53.7506 4.61456 52.2877 3.35112C50.8247 2.08767 48.6146 2.24939 47.3511 3.71233L52.6489 8.28767ZM7.21343 11.1178L26.2134 36.1178L31.7866 31.8822L12.7866 6.88221L7.21343 11.1178ZM14.1071 63.6111C20.983 50.3506 26.5918 43.2241 34.8977 30.9629L29.1023 27.037C21.0062 38.9883 15.017 46.6494 7.89287 60.3888L14.1071 63.6111ZM57.925 69.0779L34.925 34.0779L29.075 37.9221L52.075 72.9221L57.925 69.0779ZM75.0001 39.0003C74.982 35.5004 74.9821 35.5004 74.9822 35.5004C74.9822 35.5004 74.9822 35.5004 74.9822 35.5004C74.9821 35.5004 74.9819 35.5004 74.9815 35.5004C74.9807 35.5004 74.9793 35.5004 74.9773 35.5004C74.9732 35.5004 74.9667 35.5004 74.9577 35.5005C74.9398 35.5005 74.9122 35.5006 74.8753 35.5007C74.8016 35.5008 74.6909 35.5009 74.5466 35.5006C74.2581 35.5 73.8357 35.4981 73.3071 35.4925C72.2491 35.4813 70.7703 35.4556 69.0909 35.3976C65.6913 35.2803 61.6213 35.0352 58.553 34.5442L57.4469 41.4562C60.9655 42.0193 65.3956 42.2742 68.8494 42.3934C70.5966 42.4537 72.1328 42.4804 73.2331 42.4921C73.7837 42.4979 74.2263 42.5 74.5329 42.5006C74.6862 42.5009 74.8057 42.5008 74.8877 42.5007C74.9287 42.5006 74.9604 42.5005 74.9823 42.5004C74.9932 42.5004 75.0017 42.5003 75.0077 42.5003C75.0107 42.5003 75.0131 42.5003 75.0149 42.5003C75.0157 42.5003 75.0164 42.5003 75.017 42.5003C75.0173 42.5003 75.0176 42.5003 75.0177 42.5003C75.018 42.5003 75.0182 42.5003 75.0001 39.0003ZM58.553 34.5442C52.2781 33.5401 45.5086 32.5372 40.3133 31.786C37.7144 31.4103 35.5069 31.0971 33.9486 30.8779C33.1694 30.7683 32.5525 30.6821 32.13 30.6233C31.9188 30.5939 31.7562 30.5713 31.6462 30.5561C31.5912 30.5484 31.5494 30.5427 31.5212 30.5388C31.5072 30.5368 31.4965 30.5353 31.4893 30.5344C31.4857 30.5339 31.483 30.5335 31.4811 30.5332C31.4802 30.5331 31.4795 30.533 31.479 30.5329C31.4788 30.5329 31.4786 30.5329 31.4785 30.5329C31.4783 30.5328 31.4782 30.5328 31 34C30.5218 37.4672 30.5218 37.4672 30.5219 37.4672C30.522 37.4672 30.5221 37.4672 30.5223 37.4672C30.5227 37.4673 30.5233 37.4674 30.5242 37.4675C30.5258 37.4677 30.5284 37.4681 30.5318 37.4686C30.5387 37.4695 30.549 37.4709 30.5627 37.4728C30.5902 37.4766 30.6313 37.4823 30.6856 37.4898C30.7941 37.5049 30.9552 37.5272 31.1649 37.5564C31.5842 37.6148 32.1978 37.7005 32.9733 37.8096C34.5244 38.0279 36.7231 38.3397 39.3117 38.714C44.4914 39.4629 51.2219 40.4601 57.4469 41.4562L58.553 34.5442ZM4.12492 38.4978L32.1249 37.4978L31.8751 30.5022L3.87508 31.5022L4.12492 38.4978ZM34.5 77.4999C37.8653 76.5384 37.8656 76.5392 37.8658 76.54C37.8659 76.5403 37.8661 76.5411 37.8662 76.5415C37.8665 76.5425 37.8667 76.5433 37.8669 76.5441C37.8673 76.5455 37.8676 76.5466 37.8678 76.5472C37.8682 76.5484 37.868 76.5479 37.8674 76.5458C37.8662 76.5414 37.8631 76.5303 37.8583 76.5123C37.8487 76.4764 37.8321 76.4133 37.8095 76.3229C37.7644 76.1422 37.6952 75.8526 37.6098 75.454C37.439 74.657 37.2032 73.424 36.9648 71.7549C36.488 68.4171 36 63.3325 36 56.4998L29 56.4998C29 63.6671 29.512 69.0825 30.0352 72.7448C30.2967 74.5757 30.561 75.9678 30.7652 76.9207C30.8673 77.3972 30.9543 77.7638 31.0185 78.0206C31.0506 78.149 31.077 78.25 31.0967 78.3234C31.1065 78.3602 31.1147 78.39 31.1211 78.413C31.1242 78.4245 31.127 78.4343 31.1292 78.4424C31.1304 78.4464 31.1314 78.45 31.1323 78.4532C31.1327 78.4548 31.1332 78.4562 31.1336 78.4576C31.1338 78.4583 31.134 78.4592 31.1341 78.4596C31.1344 78.4605 31.1346 78.4614 34.5 77.4999ZM36 56.4998C36 49.3746 35.6183 44.1205 35.2286 40.6133C35.0337 38.8598 34.8369 37.5433 34.6849 36.6483C34.6089 36.2008 34.5442 35.8587 34.4964 35.6201C34.4726 35.5008 34.453 35.4074 34.4384 35.3396C34.4311 35.3057 34.425 35.2782 34.4203 35.2571C34.418 35.2466 34.416 35.2376 34.4143 35.2302C34.4135 35.2265 34.4127 35.2232 34.412 35.2204C34.4117 35.2189 34.4114 35.2176 34.4111 35.2163C34.411 35.2157 34.4108 35.2148 34.4107 35.2145C34.4105 35.2137 34.4103 35.2129 31 35.9999C27.5896 36.7869 27.5894 36.7862 27.5892 36.7854C27.5892 36.7852 27.589 36.7845 27.5889 36.7841C27.5887 36.7832 27.5886 36.7825 27.5884 36.7818C27.5881 36.7805 27.5879 36.7796 27.5878 36.7791C27.5876 36.7781 27.5877 36.7787 27.5882 36.7809C27.5892 36.7852 27.5915 36.7959 27.5952 36.8131C27.6026 36.8473 27.6152 36.9072 27.6324 36.993C27.6667 37.1645 27.7191 37.4396 27.7837 37.8202C27.913 38.5815 28.0912 39.7649 28.2714 41.3864C28.6317 44.6291 29 49.625 29 56.4998L36 56.4998ZM24.5078 4.23282L26.5078 34.2328L33.4922 33.7672L31.4922 3.76718L24.5078 4.23282ZM47.3511 3.71233L28.3511 25.7123L33.6489 30.2877L52.6489 8.28767L47.3511 3.71233Z" fill="#D5BDAF"/>
</svg>
