<svg width="79" height="80" viewBox="0 0 79 80" fill="none" xmlns="http://www.w3.org/2000/svg">
<path d="M5.8831 17.6871C4.25372 16.6471 2.08976 17.1249 1.04976 18.7543C0.00974917 20.3837 0.487527 22.5476 2.1169 23.5876L5.8831 17.6871ZM19.7803 69.5887C19.5383 71.5065 20.8968 73.2574 22.8146 73.4994C24.7324 73.7414 26.4833 72.3829 26.7253 70.4651L19.7803 69.5887ZM65.5718 66.0826C67.1261 67.2317 69.3177 66.9031 70.4668 65.3487C71.6159 63.7943 71.2873 61.6027 69.7329 60.4537L65.5718 66.0826ZM76.5892 29.6066C78.3996 28.9293 79.3182 26.9126 78.6408 25.1021C77.9635 23.2917 75.9467 22.3731 74.1363 23.0505L76.5892 29.6066ZM59.0642 31.2645L59.7395 34.6988L59.0642 31.2645ZM6.02814 43.8699C4.23922 44.6022 3.38263 46.6461 4.1149 48.435C4.84718 50.2239 6.89101 51.0805 8.67994 50.3482L6.02814 43.8699ZM47.8354 78.5167C48.976 80.0773 51.1658 80.4178 52.7264 79.2773C54.287 78.1367 54.6276 75.9469 53.487 74.3863L47.8354 78.5167ZM41.5277 57.4362L38.2433 58.6456L41.5277 57.4362ZM22.3601 8.30017C21.5729 6.5347 19.5036 5.74161 17.7382 6.52874C15.9727 7.31588 15.1796 9.38518 15.9667 11.1507L22.3601 8.30017ZM43.7755 5.23141C44.4556 3.422 43.5401 1.40387 41.7307 0.723779C39.9213 0.0436888 37.9031 0.959181 37.2231 2.76859L43.7755 5.23141ZM2.1169 23.5876L28.2748 40.2838L32.041 34.3834L5.8831 17.6871L2.1169 23.5876ZM28.2748 40.2838L28.5853 40.4821L32.3515 34.5816L32.041 34.3834L28.2748 40.2838ZM26.7253 70.4651C28.3134 57.8797 30.5858 49.7054 33.4204 38.6995L26.6417 36.9536C23.8268 47.8825 21.4334 56.4884 19.7803 69.5887L26.7253 70.4651ZM33.4205 38.6995C33.4627 38.5353 33.5052 38.3705 33.5477 38.205L26.7681 36.4622C26.7259 36.6265 26.6837 36.7903 26.6417 36.9536L33.4205 38.6995ZM33.5477 38.205C33.7065 37.5871 33.867 36.9603 34.0291 36.3235L27.2454 34.5968C27.0849 35.2273 26.9258 35.8486 26.7681 36.4622L33.5477 38.205ZM34.0291 36.3235C34.3318 35.1345 34.64 33.9104 34.9534 32.6439L28.1583 30.9624C27.8494 32.211 27.545 33.4197 27.2454 34.5968L34.0291 36.3235ZM69.7329 60.4537L36.0553 35.5575L31.8942 41.1864L65.5718 66.0826L69.7329 60.4537ZM75.3627 26.3285C74.1363 23.0505 74.1364 23.0504 74.1365 23.0504C74.1365 23.0504 74.1366 23.0504 74.1365 23.0504C74.1365 23.0504 74.1362 23.0505 74.1359 23.0506C74.1351 23.0509 74.1338 23.0514 74.1319 23.0521C74.1281 23.0535 74.122 23.0558 74.1136 23.0589C74.0968 23.0652 74.0709 23.0748 74.0364 23.0876C73.9672 23.1132 73.8633 23.1515 73.7279 23.2011C73.4569 23.3003 73.0599 23.4444 72.5619 23.6218C71.5652 23.9769 70.1686 24.4638 68.5726 24.9897C65.3419 26.0543 61.438 27.2307 58.389 27.8303L59.7395 34.6988C63.2359 34.0112 67.4812 32.7197 70.7634 31.638C72.4239 31.0909 73.8746 30.5851 74.9112 30.2158C75.4299 30.031 75.8459 29.88 76.1339 29.7746C76.2779 29.7219 76.3899 29.6806 76.4668 29.6521C76.5053 29.6379 76.535 29.6268 76.5555 29.6192C76.5658 29.6154 76.5737 29.6124 76.5794 29.6103C76.5822 29.6092 76.5844 29.6084 76.586 29.6078C76.5869 29.6075 76.5875 29.6072 76.588 29.6071C76.5883 29.607 76.5886 29.6069 76.5887 29.6068C76.589 29.6067 76.5892 29.6066 75.3627 26.3285ZM58.389 27.8303C46.7936 30.1103 33.5816 32.988 31.8005 33.3771L33.2946 40.2158C35.0709 39.8277 48.2215 36.9636 59.7395 34.6988L58.389 27.8303ZM31.8005 33.3771C31.7336 33.3917 31.6826 33.4029 31.6483 33.4104C31.6311 33.4142 31.6181 33.417 31.6093 33.4189C31.6049 33.4199 31.6016 33.4206 31.5994 33.4211C31.5982 33.4214 31.5974 33.4215 31.5968 33.4217C31.5965 33.4217 31.5963 33.4218 31.5961 33.4218C31.596 33.4218 31.596 33.4218 31.5959 33.4219C31.5959 33.4219 31.5959 33.4219 31.5959 33.4219C31.5959 33.4219 31.5959 33.4219 31.5958 33.4219C31.5958 33.4219 31.5958 33.4219 31.5958 33.4219C31.5958 33.4219 31.5958 33.4219 32.3452 36.8407C33.0946 40.2595 33.0946 40.2595 33.0946 40.2595C33.0946 40.2595 33.0946 40.2595 33.0946 40.2595C33.0946 40.2595 33.0946 40.2595 33.0946 40.2595C33.0946 40.2595 33.0947 40.2595 33.0947 40.2595C33.0947 40.2595 33.0947 40.2595 33.0948 40.2595C33.0949 40.2595 33.0951 40.2594 33.0953 40.2594C33.0958 40.2593 33.0966 40.2591 33.0976 40.2589C33.0997 40.2584 33.1028 40.2578 33.107 40.2568C33.1153 40.255 33.128 40.2522 33.1447 40.2486C33.1783 40.2412 33.2284 40.2303 33.2946 40.2158L31.8005 33.3771ZM8.67994 50.3482L31.357 41.0657L28.7052 34.5874L6.02814 43.8699L8.67994 50.3482ZM31.357 41.0657L33.8734 40.0356L31.2216 33.5573L28.7052 34.5874L31.357 41.0657ZM33.8734 40.0356L34.6095 39.7343L31.9577 33.256L31.2216 33.5573L33.8734 40.0356ZM50.6612 76.4515C53.487 74.3863 53.4875 74.387 53.488 74.3877C53.4882 74.3879 53.4886 74.3886 53.4889 74.389C53.4895 74.3898 53.49 74.3905 53.4905 74.3911C53.4914 74.3923 53.492 74.3932 53.4924 74.3937C53.4931 74.3947 53.4928 74.3943 53.4915 74.3925C53.4889 74.3888 53.4821 74.3794 53.4714 74.3642C53.45 74.3339 53.4126 74.2804 53.3602 74.2034C53.2554 74.0494 53.0904 73.8015 52.8725 73.4571C52.4368 72.7681 51.7895 71.6925 50.989 70.2087C49.3882 67.2413 47.1732 62.6385 44.8121 56.2267L38.2433 58.6456C40.72 65.3714 43.0718 70.2763 44.8283 73.5322C45.7064 75.1599 46.4354 76.3749 46.9563 77.1986C47.2168 77.6104 47.4252 77.9244 47.5742 78.1432C47.6487 78.2526 47.7083 78.3382 47.7522 78.4003C47.7741 78.4314 47.7921 78.4566 47.806 78.476C47.8129 78.4857 47.8189 78.4939 47.8238 78.5007C47.8263 78.5041 47.8285 78.5071 47.8304 78.5098C47.8314 78.5111 47.8323 78.5124 47.8331 78.5135C47.8335 78.5141 47.8341 78.5149 47.8343 78.5152C47.8349 78.5159 47.8354 78.5167 50.6612 76.4515ZM44.8121 56.2267C42.35 49.5404 40.1762 44.7419 38.5986 41.5854C37.8098 40.0073 37.1702 38.8399 36.7183 38.0525C36.4924 37.6588 36.3134 37.3602 36.1861 37.1528C36.1225 37.0491 36.0719 36.9682 36.0347 36.9096C36.0162 36.8803 36.001 36.8566 35.9893 36.8385C35.9834 36.8294 35.9784 36.8217 35.9743 36.8153C35.9723 36.8121 35.9704 36.8093 35.9688 36.8068C35.968 36.8056 35.9672 36.8044 35.9665 36.8034C35.9662 36.8028 35.9657 36.8021 35.9655 36.8018C35.9651 36.8011 35.9646 36.8004 33.0363 38.7174C30.108 40.6344 30.1075 40.6338 30.1071 40.6332C30.107 40.633 30.1066 40.6324 30.1064 40.632C30.1059 40.6313 30.1055 40.6306 30.1051 40.6301C30.1044 40.6289 30.1039 40.6282 30.1036 40.6277C30.103 40.6269 30.1033 40.6274 30.1045 40.6292C30.107 40.633 30.1129 40.6422 30.1223 40.657C30.141 40.6866 30.1736 40.7384 30.2193 40.813C30.3108 40.9621 30.455 41.2022 30.6472 41.537C31.0316 42.2067 31.6077 43.2556 32.3371 44.715C33.7958 47.6335 35.8677 52.1943 38.2433 58.6456L44.8121 56.2267ZM15.9667 11.1507L27.4406 36.8854L33.8339 34.0349L22.3601 8.30017L15.9667 11.1507ZM27.4406 36.8854L28.2102 38.6115L34.6035 35.761L33.8339 34.0349L27.4406 36.8854ZM37.2231 2.76859L26.9957 29.9789L33.5481 32.4417L43.7755 5.23141L37.2231 2.76859Z" fill="#F5EBE0"/>
</svg>
